<svg width="379" height="227" xmlns="http://www.w3.org/2000/svg" class="abs tlbr ww hh editor-canvas pr">
 <g>
  <title>background</title>
  <rect fill="none" id="canvas_background" height="229" width="381" y="-1" x="-1"/>
 </g>
 <g>
  <title>Layer 1</title>
  <g id="svg_1" transform="matrix(7.136712678649801,0,0,7.136712678649802,-282.4084030992915,-376.00220270132036) ">
   <g id="svg_2">
    <g id="svg_3">
     <g id="svg_4">
      <g id="svg_5" transform="matrix(0.42,0,0,0.4200000000000001,70.28712799072265,47.06930969238282) ">
       <g id="svg_6">
        <g id="svg_7" transform="matrix(1.0000003973603357,0,0,0.9999999748464323,10.144874847170003,67.63259321578585) ">
         <defs transform="translate(-28.941545486450195,-30.643573760986328) translate(-5.337923049926758,1.0008609294891357) translate(-29.02495765686035,-36.69823455810547) ">
          <linearGradient gradientTransform="rotate(-180 .5 .5)" id="gradient10" y2="1" x2="0" y1="0" x1="0">
           <stop stop-color="rgb(255, 255, 255)" offset="0"/>
           <stop stop-color="#000000" offset="1"/>
          </linearGradient>
         </defs>
         <path id="svg_8" d="m-35.504426,14.209053q3.74961,3.27832 8.65,5.25q8,3.2 16.65,1.55q-6.1,0.15 -11.5,-2q-2.6832,-1.08398 -5,-2.6q-4.67129,-0.6875 -8.8,-2.2m15.25,-62.35q12.05,-6.7 24.15,-2.95q-1.55,-0.8 -2.05,-0.95q-12.85,-5.15 -26.1,1.65q-13.35,6.8 -19.25,21.6q-5.95,14.75 -1.05,28.95q0.90273,2.60703 2.05,4.9q3.68164,2.31641 7.85,3.8q-2.62422,-3.7666 -4.3,-8.6q-4.75,-13.7 1,-28q5.5,-13.65 17.7,-20.4zm-38.7,23.3l-0.4,2.25q-2.2,13.7 7.4,25.1q6.72129,8.08652 16.45,11.7q4.12871,1.5125 8.8,2.2q0.04531,0.0416 0.1,0.05q15.7,2.55 28.45,-5.3q12.6,-7.95 14.8,-21.6q1.4,-8.5 -2.2,-16.6q1.7,5.85 0.65,11.7q-2.1,13.25 -14.4,20.9q-12.3,7.7 -27.55,5.25q-4.09727,-0.66172 -7.8,-1.95q-4.16836,-1.48359 -7.85,-3.8q-4.52695,-2.85879 -8.25,-7q-9.15,-10.25 -8.2,-22.9z" fill="url(#gradient10)"/>
        </g>
       </g>
      </g>
     </g>
    </g>
    <g id="svg_9">
     <rect id="svg_10" height="18.222221" width="51.555553" y="-34.430894" x="-21.888887" transform="matrix(1.031426035185455,0,0,1.0314268089300218,62.14798567665412,97.20018480264328) " fill="transparent"/>
     <g id="svg_11" transform="matrix(1.031426035185455,0,0,1.0314268089300218,62.14798567665412,97.20018480264328) ">
      <path id="svg_12" d="m-12.777776,-22.764227c-0.33333,0.88889 -0.83333,1.55556 -1.5,2.05556c-0.66667,0.5 -1.61111,0.72222 -2.94444,0.72222c-1.66667,0 -2.83334,-0.55556 -3.55556,-1.55556c-0.72222,-1 -1.11111,-2.55555 -1.11111,-4.66666c0,0 0,-2 0,-2c0,-2.11112 0.38889,-3.66667 1.11111,-4.66667c0.72222,-1 1.88889,-1.55556 3.55556,-1.55556c1.33333,0 2.27777,0.22223 2.94444,0.72223c0.66667,0.5 1.16667,1.16666 1.5,2.05555c0,0 -0.55556,0.27778 -0.55556,0.27778c-0.33333,-0.77778 -0.72222,-1.33333 -1.27777,-1.77778c-0.55556,-0.44444 -1.44445,-0.66667 -2.61111,-0.66667c-0.66667,0 -1.27778,0.11112 -1.72223,0.27778c-0.44444,0.16667 -0.83333,0.44445 -1.22222,0.83334c-0.38889,0.38888 -0.66667,0.94444 -0.83333,1.72222c-0.16667,0.77778 -0.27778,1.66666 -0.27778,2.77778c0,0 0,2 0,2c0,1.11111 0.11111,2 0.27778,2.77777c0.16666,0.77778 0.44444,1.33334 0.83333,1.72223c0.38889,0.38888 0.77778,0.66666 1.22222,0.83333c0.44445,0.16667 1.05556,0.27778 1.72223,0.27778c1.16666,0 2.05555,-0.22223 2.61111,-0.66667c0.55555,-0.44444 0.94444,-1 1.27777,-1.77778c0,0 0.55556,0.27778 0.55556,0.27778m3.66667,-9.05556c0,0 7.72222,0 7.72222,0c0,0 -4.66667,11.11112 -4.66667,11.11112c0,0 0,4.5 0,4.5c0,0 -0.61111,0 -0.61111,0c0,0 0,-4.5 0,-4.5c0,0 -4.72222,-11.11112 -4.72222,-11.11112c0,0 0.66667,0 0.66667,0c0,0 4.33333,10.27778 4.33333,10.27778c0,0 4.11111,-9.66666 4.11111,-9.66666c0,0 -6.83333,0 -6.83333,0c0,0 0,-0.61112 0,-0.61112c0,0 0,0 0,0m14.83333,5.77778c0,0 2.72222,5.83334 2.72222,5.83334c0,0 -0.66666,0 -0.66666,0c0,0 -2.77778,-6 -2.77778,-6c0.05555,0 0,0 0.33333,-0.16667c0.22222,-0.11111 0.38889,-0.16667 0.44445,-0.22222c0.05555,-0.05556 0.22222,-0.16667 0.38888,-0.27778c0.16667,-0.11111 0.33334,-0.22222 0.44445,-0.33333c0.11111,-0.11112 0.16667,-0.22223 0.27778,-0.38889c0.11111,-0.16667 0.22222,-0.33334 0.27777,-0.5c0.05556,-0.16667 0.05556,-0.44445 0.05556,-0.66667c0,-0.83333 -0.44444,-1.44444 -1.22222,-1.83333c-0.77778,-0.38889 -1.77778,-0.61111 -2.94445,-0.61111c0,0 -1.61111,0 -1.61111,0c0,0 0,11 0,11c0,0 -0.61111,0 -0.61111,0c0,0 0,-11.61112 0,-11.61112c0,0 2.22222,0 2.22222,0c1.55556,0 2.72223,0.27778 3.55556,0.83334c0.83333,0.55555 1.22222,1.27778 1.22222,2.22222c0,0.61111 -0.22222,1.16667 -0.61111,1.66667c-0.38889,0.5 -0.94444,0.77777 -1.5,1.05555c0,0 0,0 0,0m9.55556,-5.38889c-0.66667,0 -1.22223,0.05556 -1.66667,0.22223c-0.44445,0.16666 -0.88889,0.38888 -1.27778,0.77777c-0.38889,0.38889 -0.66667,0.94445 -0.83333,1.66667c-0.16667,0.72222 -0.27778,1.66667 -0.27778,2.77778c0,1.11111 0.11111,2 0.27778,2.72222c0.16666,0.72222 0.44444,1.27778 0.83333,1.66667c0.38889,0.38889 0.83333,0.61111 1.27778,0.77777c0.44444,0.16667 1,0.22223 1.66667,0.22223c0.66666,0 1.22222,-0.05556 1.66666,-0.22223c0.44445,-0.16666 0.88889,-0.38888 1.27778,-0.77777c0.38889,-0.38889 0.66667,-0.94445 0.83333,-1.66667c0.16667,-0.72222 0.27778,-1.61111 0.27778,-2.72222c0,-1.11111 -0.11111,-2.05556 -0.27778,-2.77778c-0.16666,-0.72222 -0.44444,-1.27778 -0.83333,-1.66667c-0.38889,-0.38889 -0.83333,-0.61111 -1.27778,-0.77777c-0.44444,-0.16667 -1,-0.22223 -1.66666,-0.22223c0,0 0,0 0,0m0,11.44445c-1.66667,0 -2.83334,-0.5 -3.55556,-1.44445c-0.72222,-0.94444 -1.11111,-2.44444 -1.11111,-4.55555c0,-2.11111 0.38889,-3.66667 1.11111,-4.61111c0.72222,-0.94445 1.88889,-1.38889 3.55556,-1.38889c1.66666,0 2.88888,0.44444 3.61111,1.38889c0.72222,0.94444 1.05555,2.5 1.05555,4.61111c0,2.11111 -0.33333,3.61111 -1.05555,4.55555c-0.72223,0.94445 -1.94445,1.44445 -3.61111,1.44445c0,0 0,0 0,0m13.27777,-11.22222c0,0 -6.22222,0 -6.22222,0c0,0 0,-0.61112 0,-0.61112c0,0 7.27778,0 7.27778,0c0,0 -6.38889,11 -6.38889,11c0,0 6.44444,0 6.44444,0c0,0 0,0.61112 0,0.61112c0,0 -7.5,0 -7.5,0c0,0 6.38889,-11 6.38889,-11" fill="#ffffff"/>
     </g>
    </g>
   </g>
  </g>
 </g>
</svg>